<?xml version="1.0" encoding="UTF-8" standalone="no"?>
<svg
   xmlns:dc="http://purl.org/dc/elements/1.1/"
   xmlns:cc="http://creativecommons.org/ns#"
   xmlns:rdf="http://www.w3.org/1999/02/22-rdf-syntax-ns#"
   xmlns:svg="http://www.w3.org/2000/svg"
   xmlns="http://www.w3.org/2000/svg"
   xmlns:sodipodi="http://sodipodi.sourceforge.net/DTD/sodipodi-0.dtd"
   xmlns:inkscape="http://www.inkscape.org/namespaces/inkscape"
   viewBox="0 0 700.00003 699.99997"
   version="1.1"
   id="svg38"
   sodipodi:docname="cogna-logo.svg"
   width="700"
   height="700"
   inkscape:export-filename="C:\Users\alex\Downloads\cogna-logo-0.png"
   inkscape:export-xdpi="561.73712"
   inkscape:export-ydpi="561.73712"
   inkscape:version="0.92.3 (2405546, 2018-03-11)">
  <metadata
     id="metadata42">
    <rdf:RDF>
      <cc:Work
         rdf:about="">
        <dc:format>image/svg+xml</dc:format>
        <dc:type
           rdf:resource="http://purl.org/dc/dcmitype/StillImage" />
        <dc:title>LG_COGNA</dc:title>
      </cc:Work>
    </rdf:RDF>
  </metadata>
  <sodipodi:namedview
     pagecolor="#ffffff"
     bordercolor="#666666"
     borderopacity="1"
     objecttolerance="10"
     gridtolerance="10"
     guidetolerance="10"
     inkscape:pageopacity="0"
     inkscape:pageshadow="2"
     inkscape:window-width="1600"
     inkscape:window-height="838"
     id="namedview40"
     showgrid="false"
     units="px"
     inkscape:zoom="0.39871144"
     inkscape:cx="558.53577"
     inkscape:cy="415.79614"
     inkscape:window-x="-8"
     inkscape:window-y="-8"
     inkscape:window-maximized="1"
     inkscape:current-layer="svg38" />
  <defs
     id="defs4">
    <style
       id="style2">.cls-1{fill:#8629ff;}.cls-2{fill:#2e3137;}</style>
  </defs>
  <title
     id="title6">LG_COGNA</title>
  <g
     id="Camada_2"
     data-name="Camada 2"
     transform="matrix(0.5620691,0,0,0.5620691,49.02042,243.23778)"
     inkscape:export-xdpi="63.79171"
     inkscape:export-ydpi="63.79171">
    <g
       id="Layer_1"
       data-name="Layer 1">
      <circle
         class="cls-1"
         cx="607.41998"
         cy="30.129999"
         r="30.129999"
         id="circle8"
         style="fill:#8629ff" />
      <path
         class="cls-2"
         d="m 1069.12,54.38 h -39 a 1.63,1.63 0 0 0 -1.57,1.83 l -1.84,16.34 a 1.83,1.83 0 0 1 -3,1.43 c -7,-5.63 -14.89,-11.89 -22.83,-15.32 a 100.75,100.75 0 0 0 -38,-8.25 h -1.68 a 101.45,101.45 0 0 0 -36.85,7 c -12.35,4.8 -23.8,13.83 -33.1,22.88 a 100.87,100.87 0 0 0 -22.31,32.59 99.53,99.53 0 0 0 22.31,110.19 c 9.3,9.05 20.75,18.07 33.12,22.93 a 101.92,101.92 0 0 0 38.53,6.94 100.84,100.84 0 0 0 38,-8.24 c 8,-3.43 15.53,-9.7 22.56,-15.33 a 1.86,1.86 0 0 1 1.87,-0.26 1.82,1.82 0 0 1 1.11,1.51 l 1.51,14.79 a 1.83,1.83 0 0 0 1.83,1.65 h 39.36 a 1.83,1.83 0 0 0 1.83,-1.83 v -189 a 1.84,1.84 0 0 0 -1.85,-1.85 z M 964.19,209.76 a 58.73,58.73 0 1 1 58.89,-58.76 58.87,58.87 0 0 1 -58.89,58.76 z"
         id="path10"
         inkscape:connector-curvature="0"
         style="fill:#2e3137" />
      <path
         class="cls-2"
         d="m 810.12,78.46 c -8.93,-8.7 -19.74,-16.92 -31.28,-21.53 a 95.36,95.36 0 0 0 -72.8,0.76 c -5.31,2.26 -10.5,6.26 -15.43,9.55 a 1.84,1.84 0 0 1 -2.85,-1.41 l -1.08,-9.9 a 1.83,1.83 0 0 0 -1.82,-1.55 h -38.15 a 1.84,1.84 0 0 0 -1.83,1.83 v 189 a 1.83,1.83 0 0 0 1.83,1.83 h 40.58 a 1.84,1.84 0 0 0 1.84,-1.83 c 0,0 -0.08,-115.47 0,-115.67 3,-8.23 6.62,-14.49 12.83,-20.42 A 57,57 0 0 1 742.3,93.36 c 14.72,0.27 27,6.47 37.14,17 a 54.79,54.79 0 0 1 15.34,39 v 95.9 a 1.79,1.79 0 0 0 1.83,1.78 h 40.58 c 1,0 1.83,-1.22 1.83,-2.23 V 146 A 95.86,95.86 0 0 0 810.1,78.42 Z"
         id="path12"
         inkscape:connector-curvature="0"
         style="fill:#2e3137" />
      <path
         class="cls-2"
         d="m 101.89,92.28 a 59.48,59.48 0 0 1 46.45,22.2 1.8,1.8 0 0 0 2.45,0.31 l 31.49,-22.34 a 1.81,1.81 0 0 0 0.74,-1.21 1.87,1.87 0 0 0 -0.38,-1.44 102.71,102.71 0 0 0 -80.75,-39.65 C 45.71,50.15 0,95.7 0,151.68 0,207.66 45.71,253.2 101.89,253.2 a 102.73,102.73 0 0 0 80.75,-39.64 1.9,1.9 0 0 0 0.38,-1.45 1.81,1.81 0 0 0 -0.74,-1.21 l -31.49,-22.34 a 1.82,1.82 0 0 0 -2.45,0.32 C 136.93,203 120,209.76 101.89,209.76 c -32.87,0 -57.64,-25.33 -57.64,-58.08 0,-32.75 24.75,-59.4 57.64,-59.4 z"
         id="path14"
         inkscape:connector-curvature="0"
         style="fill:#2e3137" />
      <path
         class="cls-2"
         d="m 576,227.25 c 31.55,-15.23 46.89,-39.83 46.89,-75.18 0,-49.12 -32.25,-102 -103,-102 -50.2,0 -104.22,31.92 -104.22,102 0,30.66 9.84,56.31 28.45,74.16 18.42,17.66 44.62,27 75.77,27 35.59,0 58.51,15.74 58.51,42.11 0,25.74 -28.8,40.88 -59.29,40.88 -30.49,0 -57.87,-15.81 -58.84,-45.12 a 1.85,1.85 0 0 0 -1.83,-1.82 h -40.28 a 1.82,1.82 0 0 0 -1.84,1.78 c -0.11,25 7.84,46.3 23,61.47 17.88,17.9 45.45,27.36 79.74,27.36 50,0 103.83,-26.46 103.83,-84.55 0,-21.37 -8.11,-49.95 -46.75,-64.73 A 1.83,1.83 0 0 1 576,227.25 Z m -56.16,-17.88 c -35.31,0 -60,-24 -60,-58.31 0,-35.67 23.55,-58.72 60,-58.72 34.07,0 58.8,24.69 58.8,58.72 -0.01,34.33 -24.19,58.31 -58.81,58.31 z"
         id="path16"
         inkscape:connector-curvature="0"
         style="fill:#2e3137" />
      <path
         class="cls-2"
         d="m 291.72,50.15 c -56.19,0 -101.89,45.55 -101.89,101.53 0,55.98 45.7,101.52 101.89,101.52 56.19,0 101.89,-45.54 101.89,-101.52 C 393.61,95.7 347.9,50.15 291.72,50.15 Z m 0,159 a 57.6,57.6 0 0 1 -57.65,-57.43 c 0,-31.67 25.86,-59.37 57.65,-59.37 31.79,0 57.64,27.7 57.64,59.37 a 57.6,57.6 0 0 1 -57.64,57.39 z"
         id="path18"
         inkscape:connector-curvature="0"
         style="fill:#2e3137" />
      <path
         class="cls-2"
         d="M 647.88,290.93 H 679 v 4.43 h -26.26 v 14.72 h 23.52 v 4.43 h -23.52 v 15.09 h 26.6 v 4.4 h -31.46 z"
         id="path20"
         inkscape:connector-curvature="0"
         style="fill:#2e3137" />
      <path
         class="cls-2"
         d="m 697.75,290.93 h 15 c 13.54,0 22.9,9.3 22.9,21.43 v 0.12 c 0,12.13 -9.36,21.55 -22.9,21.55 h -15 z m 15,38.6 c 10.89,0 17.85,-7.38 17.85,-16.93 v -0.12 c 0,-9.54 -7,-17.06 -17.85,-17.06 h -10.1 v 34.11 z"
         id="path22"
         inkscape:connector-curvature="0"
         style="fill:#2e3137" />
      <path
         class="cls-2"
         d="m 753.85,316 v -25.07 h 4.86 v 24.75 c 0,9.3 4.93,14.53 13.18,14.53 7.94,0 13,-4.8 13,-14.22 v -25.06 h 4.86 v 24.69 c 0,12.56 -7.2,19.09 -18,19.09 -10.8,0 -17.9,-6.53 -17.9,-18.71 z"
         id="path24"
         inkscape:connector-curvature="0"
         style="fill:#2e3137" />
      <path
         class="cls-2"
         d="m 808,312.6 v -0.12 c 0,-12.19 9.11,-22.29 21.79,-22.29 7.82,0 12.5,2.77 16.81,6.84 l -3.32,3.57 c -3.63,-3.45 -7.7,-5.91 -13.55,-5.91 -9.54,0 -16.68,7.75 -16.68,17.67 v 0.12 c 0,10 7.2,17.79 16.68,17.79 5.91,0 9.79,-2.27 13.92,-6.22 l 3.2,3.15 c -4.49,4.55 -9.42,7.57 -17.24,7.57 C 817.14,334.77 808,325 808,312.6 Z"
         id="path26"
         inkscape:connector-curvature="0"
         style="fill:#2e3137" />
      <path
         class="cls-2"
         d="m 879.89,290.62 h 4.55 L 904.08,334 h -5.23 L 893.8,322.61 H 870.34 L 865.23,334 h -5 z m 12,27.65 -9.79,-22 -9.85,22 z"
         id="path28"
         inkscape:connector-curvature="0"
         style="fill:#2e3137" />
      <path
         class="cls-2"
         d="m 930.68,341.48 4.74,-6.9 c -10.89,-1.41 -18.65,-10.59 -18.65,-22 v -0.12 c 0,-12.19 9.11,-22.29 21.79,-22.29 7.82,0 12.5,2.77 16.81,6.84 l -3.32,3.57 c -3.63,-3.45 -7.7,-5.91 -13.55,-5.91 -9.54,0 -16.68,7.75 -16.68,17.67 v 0.12 c 0,10 7.2,17.79 16.68,17.79 5.91,0 9.79,-2.27 13.92,-6.22 l 3.2,3.15 c -4.31,4.37 -9,7.26 -16.26,7.51 l -4.06,8.86 z"
         id="path30"
         inkscape:connector-curvature="0"
         style="fill:#2e3137" />
      <path
         class="cls-2"
         d="m 988.68,290.62 h 4.56 l 19.64,43.38 h -5.23 l -5,-11.39 H 979.14 L 974,334 h -5 z M 981,286.19 c 1.23,-4.25 2.89,-6.28 5.79,-6.28 2.7,0 6.21,2.4 8.25,2.4 1.6,0 2.27,-0.86 3.2,-2.89 l 3,0.86 c -1.23,4.25 -2.89,6.22 -5.78,6.22 -2.71,0 -6.22,-2.4 -8.25,-2.4 -1.6,0 -2.28,0.86 -3.21,2.95 z m 19.7,32.08 -9.79,-22 -9.85,22 z"
         id="path32"
         inkscape:connector-curvature="0"
         style="fill:#2e3137" />
      <path
         class="cls-2"
         d="m 1025.57,312.6 v -0.12 c 0,-11.88 8.93,-22.29 22,-22.29 13.07,0 21.92,10.28 21.92,22.17 v 0.12 c 0,11.88 -8.93,22.29 -22,22.29 -13.07,0 -21.92,-10.28 -21.92,-22.17 z m 38.91,0 v -0.12 c 0,-9.79 -7.14,-17.79 -17,-17.79 -9.86,0 -16.87,7.88 -16.87,17.67 v 0.12 c 0,9.79 7.14,17.79 17,17.79 9.86,0 16.87,-7.88 16.87,-17.67 z"
         id="path34"
         inkscape:connector-curvature="0"
         style="fill:#2e3137" />
    </g>
  </g>
</svg>
