<?xml version="1.0" encoding="utf-8"?>
<!-- Generator: Adobe Illustrator 19.2.1, SVG Export Plug-In . SVG Version: 6.00 Build 0)  -->
<svg version="1.1" id="layer" xmlns="http://www.w3.org/2000/svg" xmlns:xlink="http://www.w3.org/1999/xlink" x="0px" y="0px"
	 viewBox="0 0 652 652" style="enable-background:new 0 0 652 652;" xml:space="preserve">
<style type="text/css">
	.st0{fill:#D12329;}
	.st1{fill:#FFFFFF;}
</style>
<path id="Fill-6" d="M327.2,309.8c-0.6,1.9-6.9,14.6-6.9,14.6l2.6,0l14-20.4v-1.7c0,0-12.2,0-18.1,0v1.7
	C318.8,304,329.1,303.6,327.2,309.8L327.2,309.8z M361.2,338.6l0-28.7c0-3.4,0.4-3.9,7.9-3.9c13.5,0,20,9.5,20,18.8
	c0,9.8-5.3,14.8-5.9,15.2c0,0,0.3,0.2,1.9,0.2c4.5,0,15.1-4.7,15-17.2c0-8.1-4.2-14-10-17.1c-5.6-3-13.4-3.6-20.9-3.6
	c-11.9,0-21,0-27.9,0l0,1.7c0,0,9.9,0.1,9.9,8.7c0,0,0,19.2,0,23.5c0,0,0.1,2.4,2.3,2.4L361.2,338.6z M416.8,381.7
	c-2.1,0-4.4-0.9-7.5-3.5c-8.4-6.8-10.7-10.9-20.5-26.7c-0.6-1-5.8-8.7-13.5-8.7c-3.1,0-19.6,0-21.8,0c-2.2,0-2.3,2.4-2.3,2.4l0,20.9
	c0,12.8-0.2,14.4-7.3,15.3l-3.5,0.4l0,1.8l31.1-0.1l0-1.7l-3-0.4c-7.1-1-7.3-2.4-7.3-15.3l0-16.7c0-2.6,0.3-3,2.5-3l4.2,0
	c4.9,0,6.2,1.2,8,3.9c3.8,5.5,9.4,15.1,12.6,19.6c8.7,12.3,14,13.4,24.3,13.4c1.3,0,2.4,0,4,0C416.9,382.5,416.9,382.4,416.8,381.7
	L416.8,381.7z M307.9,346.4c-5.1-9.1-15.2-30-18.1-36.1c-2.2-4.7,2.8-6.3,6-6.3v-1.7c0,0-24.4,0-28.1,0.1c0,0.7,0,0.9,0,1.8
	c2.6,0,8.2,1,12.4,9.1l15.5,30.1c3.5,6.8,3.9,8.3,3.9,15l0,7.7c0,13.1-0.2,14.8-7.3,15.5l-5.1,0.4c0,0.8,0,1.7,0,1.7l34.8-0.1
	c0,0,0-1,0-1.7l-5.1-0.4c-6.6-0.5-7.3-2.4-7.3-15.5l0-7.7C309.4,351.6,309.4,349.1,307.9,346.4L307.9,346.4z M593.8,342.8l-6.6-19.9
	c-1-2.9-2.1-6.2-2.8-7.7h-0.3c-0.4,0.6-1.6,3.6-2.9,7.2l-7.6,21.3c-1,2.8-0.8,2.9,2.6,2.9l15,0C594.6,346.6,594.9,346.1,593.8,342.8
	L593.8,342.8z M626.5,381.4v1.7c0,0-26,0-29.6,0.1v-1.7c7.9,0,7.8-2.6,7.8-3.8c0-1.3-0.6-3.5-1.6-6.5l-5.4-16.6
	c-0.9-2.7-1.4-3.1-5-3l-18.4,0c-3,0-3.8,0.4-4.6,2.9l-4.2,12.8c-1.8,5.5-2.7,8.8-2.7,10.1c0,1.5,1.1,4,7.6,4v1.8l-24.8,0
	c0,0,0-0.1,0-1.7c6.3,0,9.6-3.3,11.3-7.6c2.2-5.6,5.6-13.6,10.7-27.3l14.5-38.8l-0.5-1.5l8-6l22.7,66.5c2.6,7.8,4.3,10.4,6.7,12.3
	C619.9,379.9,622.8,381.4,626.5,381.4L626.5,381.4z M493.2,366c0,12.8-0.2,14.5-7.3,15.3l-3.7,0.4c0,1,0,0.9,0,1.8
	c6.9,0,57.1-0.1,57.1-0.1l4.3-17.4c0,0-1-0.4-1.7-0.5c-2.4,6.2-5.6,10.7-8.1,12.2c-1.9,1.1-4.5,1.6-14.9,1.6
	c-9.6,0-11.9-1.4-13.3-2.8c-2.2-2.3-2.6-5.5-2.6-13.2l-0.1-43.8c0-12.8,0.2-14.8,7.4-15.4l2.9-0.3v-1.7c-6.4,0-31.3,0.1-31.3,0.1
	s0,0.5,0,1.7l3,0.2c7.7,0.6,7.9,2.5,7.9,15.4L493.2,366z M426.2,366.1c0,12.8-1.3,15.1-8.2,15.7l-3.3,0c0,1.4,0,0.6,0,1.8
	c0.9,0,60.2-0.1,60.2-0.1l4.3-17.4c0,0-0.5-0.2-1.7-0.5c-3.1,6.4-6.4,10.6-8.6,11.9c-2.7,1.3-6.2,1.8-15.6,1.9
	c-10.7,0-13.3-1.3-14.7-2.8c-2-2.1-2.3-4.9-2.3-11.4l0-18.5c0-3.2,0.4-3.3,4-3.3l7.1,0c4.7,0,7.7,0.1,9.4,0.6
	c2.4,0.6,3.3,2.4,3.8,4.6l1.1,4.8l1.7,0l0-24.3l-1.7,0l-1,5c-0.6,3-1.5,3.8-2.9,4.3c-1.5,0.5-5.2,0.7-10.4,0.8l-7.1,0
	c-3.7,0-4,0-4-3.4l0-24.4c0-4.6,0-4.9,3.6-4.9l8.8,0c5.4,0,9.3,0.1,11.8,0.7c6.3,1.6,7.4,5.9,9.3,11.6c1.4-0.1,1.7-0.2,1.7-0.2
	l-2-16.3c0,0-51.5,0.1-52.6,0.1v1.7l2,0.2c7.2,0.8,7.4,2.7,7.5,15.4L426.2,366.1z M203.3,311.3c8.9-7,20.2-10.4,32.9-10.4
	c6.6,0,15.8,1.3,21.6,2.9c1.5,0.4,3.4,0.8,3.4,0.8l1.7,17.9c0,0-0.4,0-1.7,0c-1.8-8.3-8.9-17.8-26.6-17.8
	c-18.6,0-34.5,11.9-34.4,37.2c0,25.7,16.3,39.8,36.2,39.8c15.7,0,24.3-10.3,27-17.5c1.3,0,1.7,0,1.7,0l-6,17.3c0,0-2.9,0.7-4.3,1.2
	c-2.7,1-11.4,2.8-19.2,2.8c-11,0-21.4-2.2-30.3-8.1c-9.8-6.7-17.3-17.8-17.4-33.6C188,330.1,194.1,318.5,203.3,311.3L203.3,311.3z"
	/>
<path class="st0" d="M26.5,406.4V289.7h116.3v116.7H26.5z M84.4,245.6c-0.4,0.2,57.6,31.1,57.6,31.1H27.3
	C27.3,276.6,84.8,245.3,84.4,245.6z"/>
<path class="st1" d="M120.6,380.3c0,1.9-1.6,3.5-3.5,3.5H52.8c-1.9,0-3.5-1.6-3.5-3.5v-64.5c0-1.9,1.6-3.5,3.5-3.5h64.3
	c1.9,0,3.5,1.6,3.5,3.5V380.3z"/>
</svg>
