<svg xmlns="http://www.w3.org/2000/svg" xmlns:xlink="http://www.w3.org/1999/xlink" width="225" zoomAndPan="magnify" viewBox="0 0 168.75 55.5" height="74" preserveAspectRatio="xMidYMid meet" version="1.0"><defs><g/><clipPath id="5ede97d533"><path d="M 0.628906 12.207031 L 24.726562 12.207031 L 24.726562 37 L 0.628906 37 Z M 0.628906 12.207031 " clip-rule="nonzero"/></clipPath><clipPath id="0a83485de0"><path d="M 0.628906 12.207031 L 19 12.207031 L 19 16 L 0.628906 16 Z M 0.628906 12.207031 " clip-rule="nonzero"/></clipPath><clipPath id="ffc73a4b1b"><path d="M 0.628906 41 L 24.726562 41 L 24.726562 43.660156 L 0.628906 43.660156 Z M 0.628906 41 " clip-rule="nonzero"/></clipPath></defs><g clip-path="url(#5ede97d533)"><path fill="#ffffff" d="M 22.21875 17.269531 L 22.21875 36.347656 L 24.761719 36.347656 L 24.761719 12.21875 L 20.585938 12.21875 C 20.585938 13.730469 19.960938 15.175781 18.859375 16.210938 L 0.632812 33.394531 L 2.695312 35.671875 Z M 22.21875 17.269531 " fill-opacity="1" fill-rule="nonzero"/></g><g clip-path="url(#0a83485de0)"><path fill="#ffffff" d="M 18.582031 12.210938 L 0.632812 12.210938 L 0.632812 15.25 C 1.410156 15.25 15.777344 15.253906 16.308594 15.253906 C 16.308594 15.253906 19.375 14.613281 18.582031 12.210938 Z M 18.582031 12.210938 " fill-opacity="1" fill-rule="nonzero"/></g><g clip-path="url(#ffc73a4b1b)"><path fill="#ffffff" d="M 0.632812 41.164062 L 24.769531 41.164062 L 24.769531 43.707031 L 0.632812 43.707031 Z M 0.632812 41.164062 " fill-opacity="1" fill-rule="nonzero"/></g><g fill="#fffef4" fill-opacity="1"><g transform="translate(37.293877, 24.572851)"><g><path d="M 4.96875 0.109375 C 4.195312 0.109375 3.507812 -0.0234375 2.90625 -0.296875 C 2.300781 -0.566406 1.828125 -0.941406 1.484375 -1.421875 C 1.140625 -1.910156 0.960938 -2.46875 0.953125 -3.09375 L 2.5625 -3.09375 C 2.613281 -2.550781 2.835938 -2.09375 3.234375 -1.71875 C 3.628906 -1.351562 4.207031 -1.171875 4.96875 -1.171875 C 5.6875 -1.171875 6.253906 -1.347656 6.671875 -1.703125 C 7.085938 -2.066406 7.296875 -2.53125 7.296875 -3.09375 C 7.296875 -3.539062 7.171875 -3.898438 6.921875 -4.171875 C 6.679688 -4.453125 6.378906 -4.664062 6.015625 -4.8125 C 5.648438 -4.957031 5.15625 -5.113281 4.53125 -5.28125 C 3.757812 -5.476562 3.144531 -5.675781 2.6875 -5.875 C 2.226562 -6.070312 1.832031 -6.382812 1.5 -6.8125 C 1.175781 -7.25 1.015625 -7.828125 1.015625 -8.546875 C 1.015625 -9.179688 1.175781 -9.738281 1.5 -10.21875 C 1.820312 -10.707031 2.273438 -11.085938 2.859375 -11.359375 C 3.441406 -11.628906 4.109375 -11.765625 4.859375 -11.765625 C 5.953125 -11.765625 6.84375 -11.488281 7.53125 -10.9375 C 8.226562 -10.394531 8.625 -9.675781 8.71875 -8.78125 L 7.046875 -8.78125 C 6.992188 -9.21875 6.757812 -9.601562 6.34375 -9.9375 C 5.9375 -10.28125 5.394531 -10.453125 4.71875 -10.453125 C 4.082031 -10.453125 3.5625 -10.289062 3.15625 -9.96875 C 2.757812 -9.644531 2.5625 -9.1875 2.5625 -8.59375 C 2.5625 -8.175781 2.679688 -7.832031 2.921875 -7.5625 C 3.160156 -7.289062 3.453125 -7.085938 3.796875 -6.953125 C 4.148438 -6.816406 4.644531 -6.660156 5.28125 -6.484375 C 6.039062 -6.265625 6.65625 -6.050781 7.125 -5.84375 C 7.59375 -5.644531 7.992188 -5.332031 8.328125 -4.90625 C 8.660156 -4.476562 8.828125 -3.898438 8.828125 -3.171875 C 8.828125 -2.597656 8.675781 -2.0625 8.375 -1.5625 C 8.070312 -1.0625 7.625 -0.65625 7.03125 -0.34375 C 6.445312 -0.0390625 5.757812 0.109375 4.96875 0.109375 Z M 4.96875 0.109375 "/></g></g></g><g fill="#fffef4" fill-opacity="1"><g transform="translate(47.075104, 24.572851)"><g><path d="M 2.765625 -11.609375 L 2.765625 -4.265625 C 2.765625 -3.234375 3.015625 -2.46875 3.515625 -1.96875 C 4.023438 -1.46875 4.726562 -1.21875 5.625 -1.21875 C 6.519531 -1.21875 7.21875 -1.46875 7.71875 -1.96875 C 8.226562 -2.46875 8.484375 -3.234375 8.484375 -4.265625 L 8.484375 -11.609375 L 10 -11.609375 L 10 -4.28125 C 10 -3.3125 9.800781 -2.492188 9.40625 -1.828125 C 9.019531 -1.171875 8.492188 -0.679688 7.828125 -0.359375 C 7.171875 -0.046875 6.429688 0.109375 5.609375 0.109375 C 4.785156 0.109375 4.046875 -0.046875 3.390625 -0.359375 C 2.734375 -0.679688 2.210938 -1.171875 1.828125 -1.828125 C 1.441406 -2.492188 1.25 -3.3125 1.25 -4.28125 L 1.25 -11.609375 Z M 2.765625 -11.609375 "/></g></g></g><g fill="#fffef4" fill-opacity="1"><g transform="translate(58.322682, 24.572851)"><g><path d="M 2.765625 -11.609375 L 2.765625 -4.265625 C 2.765625 -3.234375 3.015625 -2.46875 3.515625 -1.96875 C 4.023438 -1.46875 4.726562 -1.21875 5.625 -1.21875 C 6.519531 -1.21875 7.21875 -1.46875 7.71875 -1.96875 C 8.226562 -2.46875 8.484375 -3.234375 8.484375 -4.265625 L 8.484375 -11.609375 L 10 -11.609375 L 10 -4.28125 C 10 -3.3125 9.800781 -2.492188 9.40625 -1.828125 C 9.019531 -1.171875 8.492188 -0.679688 7.828125 -0.359375 C 7.171875 -0.046875 6.429688 0.109375 5.609375 0.109375 C 4.785156 0.109375 4.046875 -0.046875 3.390625 -0.359375 C 2.734375 -0.679688 2.210938 -1.171875 1.828125 -1.828125 C 1.441406 -2.492188 1.25 -3.3125 1.25 -4.28125 L 1.25 -11.609375 Z M 2.765625 -11.609375 "/></g></g></g><g fill="#fffef4" fill-opacity="1"><g transform="translate(69.57026, 24.572851)"><g><path d="M 8.421875 -11.609375 L 8.421875 -10.375 L 5.265625 -10.375 L 5.265625 0 L 3.75 0 L 3.75 -10.375 L 0.5625 -10.375 L 0.5625 -11.609375 Z M 8.421875 -11.609375 "/></g></g></g><g fill="#fffef4" fill-opacity="1"><g transform="translate(78.584986, 24.572851)"><g><path d="M 2.5625 -1.3125 L 8.234375 -1.3125 L 8.234375 0 L 0.765625 0 L 0.765625 -1.203125 L 6.390625 -10.296875 L 0.828125 -10.296875 L 0.828125 -11.609375 L 8.1875 -11.609375 L 8.1875 -10.40625 Z M 2.5625 -1.3125 "/></g></g></g><g fill="#fffef4" fill-opacity="1"><g transform="translate(37.293877, 41.223143)"><g><path d="M 2.796875 -10.375 L 2.796875 -6.5 L 7.03125 -6.5 L 7.03125 -5.25 L 2.796875 -5.25 L 2.796875 -1.25 L 7.53125 -1.25 L 7.53125 0 L 1.28125 0 L 1.28125 -11.625 L 7.53125 -11.625 L 7.53125 -10.375 Z M 2.796875 -10.375 "/></g></g></g><g fill="#fffef4" fill-opacity="1"><g transform="translate(45.842037, 41.223143)"><g><path d="M 4.890625 -11.609375 C 6.160156 -11.609375 7.257812 -11.367188 8.1875 -10.890625 C 9.113281 -10.421875 9.820312 -9.75 10.3125 -8.875 C 10.8125 -8 11.0625 -6.96875 11.0625 -5.78125 C 11.0625 -4.59375 10.8125 -3.5625 10.3125 -2.6875 C 9.820312 -1.8125 9.113281 -1.144531 8.1875 -0.6875 C 7.257812 -0.226562 6.160156 0 4.890625 0 L 1.28125 0 L 1.28125 -11.609375 Z M 4.890625 -1.25 C 6.390625 -1.25 7.535156 -1.644531 8.328125 -2.4375 C 9.117188 -3.226562 9.515625 -4.34375 9.515625 -5.78125 C 9.515625 -7.21875 9.113281 -8.34375 8.3125 -9.15625 C 7.519531 -9.96875 6.378906 -10.375 4.890625 -10.375 L 2.796875 -10.375 L 2.796875 -1.25 Z M 4.890625 -1.25 "/></g></g></g><g fill="#fffef4" fill-opacity="1"><g transform="translate(57.622833, 41.223143)"><g><path d="M 2.765625 -11.609375 L 2.765625 -4.265625 C 2.765625 -3.234375 3.015625 -2.46875 3.515625 -1.96875 C 4.023438 -1.46875 4.726562 -1.21875 5.625 -1.21875 C 6.519531 -1.21875 7.21875 -1.46875 7.71875 -1.96875 C 8.226562 -2.46875 8.484375 -3.234375 8.484375 -4.265625 L 8.484375 -11.609375 L 10 -11.609375 L 10 -4.28125 C 10 -3.3125 9.800781 -2.492188 9.40625 -1.828125 C 9.019531 -1.171875 8.492188 -0.679688 7.828125 -0.359375 C 7.171875 -0.046875 6.429688 0.109375 5.609375 0.109375 C 4.785156 0.109375 4.046875 -0.046875 3.390625 -0.359375 C 2.734375 -0.679688 2.210938 -1.171875 1.828125 -1.828125 C 1.441406 -2.492188 1.25 -3.3125 1.25 -4.28125 L 1.25 -11.609375 Z M 2.765625 -11.609375 "/></g></g></g><g fill="#fffef4" fill-opacity="1"><g transform="translate(68.870412, 41.223143)"><g><path d="M 0.71875 -5.8125 C 0.71875 -6.945312 0.972656 -7.96875 1.484375 -8.875 C 1.992188 -9.78125 2.6875 -10.488281 3.5625 -11 C 4.445312 -11.507812 5.429688 -11.765625 6.515625 -11.765625 C 7.773438 -11.765625 8.878906 -11.457031 9.828125 -10.84375 C 10.773438 -10.226562 11.460938 -9.363281 11.890625 -8.25 L 10.078125 -8.25 C 9.753906 -8.945312 9.289062 -9.484375 8.6875 -9.859375 C 8.082031 -10.234375 7.359375 -10.421875 6.515625 -10.421875 C 5.703125 -10.421875 4.972656 -10.234375 4.328125 -9.859375 C 3.679688 -9.484375 3.175781 -8.945312 2.8125 -8.25 C 2.445312 -7.5625 2.265625 -6.75 2.265625 -5.8125 C 2.265625 -4.894531 2.445312 -4.085938 2.8125 -3.390625 C 3.175781 -2.691406 3.679688 -2.15625 4.328125 -1.78125 C 4.972656 -1.40625 5.703125 -1.21875 6.515625 -1.21875 C 7.359375 -1.21875 8.082031 -1.398438 8.6875 -1.765625 C 9.289062 -2.140625 9.753906 -2.675781 10.078125 -3.375 L 11.890625 -3.375 C 11.460938 -2.269531 10.773438 -1.414062 9.828125 -0.8125 C 8.878906 -0.207031 7.773438 0.09375 6.515625 0.09375 C 5.429688 0.09375 4.445312 -0.15625 3.5625 -0.65625 C 2.6875 -1.164062 1.992188 -1.867188 1.484375 -2.765625 C 0.972656 -3.660156 0.71875 -4.675781 0.71875 -5.8125 Z M 0.71875 -5.8125 "/></g></g></g><g fill="#fffef4" fill-opacity="1"><g transform="translate(81.734305, 41.223143)"><g><path d="M 8.140625 -2.578125 L 3.078125 -2.578125 L 2.15625 0 L 0.546875 0 L 4.75 -11.546875 L 6.5 -11.546875 L 10.671875 0 L 9.078125 0 Z M 7.71875 -3.8125 L 5.609375 -9.671875 L 3.515625 -3.8125 Z M 7.71875 -3.8125 "/></g></g></g><g fill="#fffef4" fill-opacity="1"><g transform="translate(92.965219, 41.223143)"><g><path d="M 8.421875 -11.609375 L 8.421875 -10.375 L 5.265625 -10.375 L 5.265625 0 L 3.75 0 L 3.75 -10.375 L 0.5625 -10.375 L 0.5625 -11.609375 Z M 8.421875 -11.609375 "/></g></g></g><g fill="#fffef4" fill-opacity="1"><g transform="translate(101.979943, 41.223143)"><g><path d="M 2.796875 -11.609375 L 2.796875 0 L 1.28125 0 L 1.28125 -11.609375 Z M 2.796875 -11.609375 "/></g></g></g><g fill="#fffef4" fill-opacity="1"><g transform="translate(106.079059, 41.223143)"><g><path d="M 6.546875 0.109375 C 5.472656 0.109375 4.488281 -0.140625 3.59375 -0.640625 C 2.707031 -1.148438 2.003906 -1.851562 1.484375 -2.75 C 0.972656 -3.65625 0.71875 -4.675781 0.71875 -5.8125 C 0.71875 -6.945312 0.972656 -7.96875 1.484375 -8.875 C 2.003906 -9.78125 2.707031 -10.484375 3.59375 -10.984375 C 4.488281 -11.492188 5.472656 -11.75 6.546875 -11.75 C 7.628906 -11.75 8.613281 -11.492188 9.5 -10.984375 C 10.394531 -10.484375 11.097656 -9.78125 11.609375 -8.875 C 12.117188 -7.976562 12.375 -6.957031 12.375 -5.8125 C 12.375 -4.664062 12.117188 -3.644531 11.609375 -2.75 C 11.097656 -1.851562 10.394531 -1.148438 9.5 -0.640625 C 8.613281 -0.140625 7.628906 0.109375 6.546875 0.109375 Z M 6.546875 -1.203125 C 7.359375 -1.203125 8.085938 -1.390625 8.734375 -1.765625 C 9.378906 -2.140625 9.890625 -2.675781 10.265625 -3.375 C 10.640625 -4.082031 10.828125 -4.894531 10.828125 -5.8125 C 10.828125 -6.75 10.640625 -7.5625 10.265625 -8.25 C 9.890625 -8.945312 9.378906 -9.484375 8.734375 -9.859375 C 8.097656 -10.234375 7.367188 -10.421875 6.546875 -10.421875 C 5.722656 -10.421875 4.988281 -10.234375 4.34375 -9.859375 C 3.695312 -9.484375 3.1875 -8.945312 2.8125 -8.25 C 2.445312 -7.5625 2.265625 -6.75 2.265625 -5.8125 C 2.265625 -4.894531 2.445312 -4.082031 2.8125 -3.375 C 3.1875 -2.675781 3.695312 -2.140625 4.34375 -1.765625 C 5 -1.390625 5.734375 -1.203125 6.546875 -1.203125 Z M 6.546875 -1.203125 "/></g></g></g><g fill="#fffef4" fill-opacity="1"><g transform="translate(119.176238, 41.223143)"><g><path d="M 10.40625 0 L 8.890625 0 L 2.796875 -9.25 L 2.796875 0 L 1.28125 0 L 1.28125 -11.625 L 2.796875 -11.625 L 8.890625 -2.40625 L 8.890625 -11.625 L 10.40625 -11.625 Z M 10.40625 0 "/></g></g></g></svg>