<svg xmlns="http://www.w3.org/2000/svg" xmlns:xlink="http://www.w3.org/1999/xlink" width="97" zoomAndPan="magnify" viewBox="0 0 72.75 38.999999" height="52" preserveAspectRatio="xMidYMid meet" version="1.0"><defs><g/><clipPath id="a651855140"><path d="M 0 0.0664062 L 72.5 0.0664062 L 72.5 38.933594 L 0 38.933594 Z M 0 0.0664062 " clip-rule="nonzero"/></clipPath><clipPath id="6f578d8bc2"><path d="M 0 5.597656 L 23.917969 5.597656 L 23.917969 30 L 0 30 Z M 0 5.597656 " clip-rule="nonzero"/></clipPath><clipPath id="c7b1619da9"><path d="M 0 5.597656 L 19 5.597656 L 19 9 L 0 9 Z M 0 5.597656 " clip-rule="nonzero"/></clipPath><clipPath id="9d3010e89e"><path d="M 0 34 L 23.917969 34 L 23.917969 36.992188 L 0 36.992188 Z M 0 34 " clip-rule="nonzero"/></clipPath></defs><g clip-path="url(#a651855140)"><path fill="#ffffff" d="M 0 0.0664062 L 72.5 0.0664062 L 72.5 38.933594 L 0 38.933594 Z M 0 0.0664062 " fill-opacity="1" fill-rule="nonzero"/></g><g clip-path="url(#6f578d8bc2)"><path fill="#ffffff" d="M 21.703125 10.691406 L 21.703125 29.871094 L 24.261719 29.871094 L 24.261719 5.609375 L 20.0625 5.609375 C 20.0625 7.128906 19.4375 8.582031 18.332031 9.625 L 0 26.902344 L 2.078125 29.191406 Z M 21.703125 10.691406 " fill-opacity="1" fill-rule="nonzero"/></g><g clip-path="url(#c7b1619da9)"><path fill="#ffffff" d="M 18.050781 5.601562 L 0 5.601562 L 0 8.660156 C 0.785156 8.660156 15.230469 8.660156 15.761719 8.660156 C 15.761719 8.660156 18.847656 8.019531 18.050781 5.601562 Z M 18.050781 5.601562 " fill-opacity="1" fill-rule="nonzero"/></g><g clip-path="url(#9d3010e89e)"><path fill="#ffffff" d="M 0 34.710938 L 24.269531 34.710938 L 24.269531 37.269531 L 0 37.269531 Z M 0 34.710938 " fill-opacity="1" fill-rule="nonzero"/></g><g fill="#000000" fill-opacity="1"><g transform="translate(43.086656, 27.035361)"><g><path d="M 0.921875 -2.359375 C 0.921875 -2.742188 0.992188 -3.109375 1.140625 -3.453125 C 1.296875 -3.804688 1.5 -4.109375 1.75 -4.359375 C 2 -4.617188 2.296875 -4.820312 2.640625 -4.96875 C 2.992188 -5.125 3.367188 -5.203125 3.765625 -5.203125 C 4.140625 -5.203125 4.503906 -5.125 4.859375 -4.96875 C 5.210938 -4.820312 5.515625 -4.617188 5.765625 -4.359375 C 6.015625 -4.109375 6.21875 -3.804688 6.375 -3.453125 C 6.53125 -3.109375 6.609375 -2.742188 6.609375 -2.359375 C 6.609375 -1.960938 6.53125 -1.59375 6.375 -1.25 C 6.21875 -0.90625 6.015625 -0.609375 5.765625 -0.359375 C 5.515625 -0.109375 5.210938 0.09375 4.859375 0.25 C 4.503906 0.40625 4.140625 0.484375 3.765625 0.484375 C 3.367188 0.484375 2.992188 0.40625 2.640625 0.25 C 2.296875 0.09375 2 -0.109375 1.75 -0.359375 C 1.5 -0.609375 1.296875 -0.90625 1.140625 -1.25 C 0.992188 -1.59375 0.921875 -1.960938 0.921875 -2.359375 Z M 0.921875 -2.359375 "/></g></g></g></svg>