<svg xmlns="http://www.w3.org/2000/svg" xmlns:xlink="http://www.w3.org/1999/xlink" width="256" zoomAndPan="magnify" viewBox="0 0 192 62.999997" height="84" preserveAspectRatio="xMidYMid meet" version="1.0"><defs><g/><clipPath id="d1319d0fbb"><path d="M 0 14 L 27.625 14 L 27.625 42 L 0 42 Z M 0 14 " clip-rule="nonzero"/></clipPath><clipPath id="bb0d02ea1a"><path d="M 0 47 L 27.625 47 L 27.625 50.054688 L 0 50.054688 Z M 0 47 " clip-rule="nonzero"/></clipPath></defs><g clip-path="url(#d1319d0fbb)"><path fill="#ffffff" d="M 24.75 19.800781 L 24.75 41.671875 L 27.664062 41.671875 L 27.664062 14.007812 L 22.878906 14.007812 C 22.878906 15.738281 22.164062 17.398438 20.902344 18.585938 L 0 38.285156 L 2.371094 40.894531 Z M 24.75 19.800781 " fill-opacity="1" fill-rule="nonzero"/></g><path fill="#ffffff" d="M 20.582031 14 L 0 14 L 0 17.484375 C 0.894531 17.484375 17.363281 17.484375 17.972656 17.484375 C 17.972656 17.484375 21.492188 16.75 20.582031 14 Z M 20.582031 14 " fill-opacity="1" fill-rule="nonzero"/><g clip-path="url(#bb0d02ea1a)"><path fill="#ffffff" d="M 0 47.191406 L 27.675781 47.191406 L 27.675781 50.105469 L 0 50.105469 Z M 0 47.191406 " fill-opacity="1" fill-rule="nonzero"/></g><g fill="#fffef4" fill-opacity="1"><g transform="translate(42.032074, 28.170304)"><g><path d="M 5.6875 0.140625 C 4.8125 0.140625 4.023438 -0.015625 3.328125 -0.328125 C 2.640625 -0.640625 2.097656 -1.070312 1.703125 -1.625 C 1.304688 -2.1875 1.101562 -2.828125 1.09375 -3.546875 L 2.9375 -3.546875 C 3 -2.929688 3.253906 -2.410156 3.703125 -1.984375 C 4.160156 -1.554688 4.820312 -1.34375 5.6875 -1.34375 C 6.519531 -1.34375 7.175781 -1.546875 7.65625 -1.953125 C 8.132812 -2.367188 8.375 -2.898438 8.375 -3.546875 C 8.375 -4.054688 8.234375 -4.472656 7.953125 -4.796875 C 7.671875 -5.117188 7.316406 -5.359375 6.890625 -5.515625 C 6.472656 -5.679688 5.910156 -5.863281 5.203125 -6.0625 C 4.316406 -6.289062 3.609375 -6.519531 3.078125 -6.75 C 2.554688 -6.976562 2.109375 -7.335938 1.734375 -7.828125 C 1.359375 -8.316406 1.171875 -8.972656 1.171875 -9.796875 C 1.171875 -10.523438 1.351562 -11.171875 1.71875 -11.734375 C 2.09375 -12.296875 2.613281 -12.726562 3.28125 -13.03125 C 3.945312 -13.332031 4.710938 -13.484375 5.578125 -13.484375 C 6.828125 -13.484375 7.847656 -13.171875 8.640625 -12.546875 C 9.441406 -11.929688 9.894531 -11.109375 10 -10.078125 L 8.078125 -10.078125 C 8.015625 -10.578125 7.75 -11.019531 7.28125 -11.40625 C 6.8125 -11.800781 6.1875 -12 5.40625 -12 C 4.675781 -12 4.082031 -11.8125 3.625 -11.4375 C 3.164062 -11.0625 2.9375 -10.535156 2.9375 -9.859375 C 2.9375 -9.378906 3.070312 -8.984375 3.34375 -8.671875 C 3.625 -8.367188 3.960938 -8.132812 4.359375 -7.96875 C 4.765625 -7.8125 5.332031 -7.632812 6.0625 -7.4375 C 6.9375 -7.195312 7.640625 -6.957031 8.171875 -6.71875 C 8.710938 -6.476562 9.171875 -6.113281 9.546875 -5.625 C 9.929688 -5.132812 10.125 -4.46875 10.125 -3.625 C 10.125 -2.976562 9.953125 -2.367188 9.609375 -1.796875 C 9.265625 -1.222656 8.753906 -0.753906 8.078125 -0.390625 C 7.410156 -0.0351562 6.613281 0.140625 5.6875 0.140625 Z M 5.6875 0.140625 "/></g></g></g><g fill="#fffef4" fill-opacity="1"><g transform="translate(53.24527, 28.170304)"><g><path d="M 3.171875 -13.3125 L 3.171875 -4.890625 C 3.171875 -3.703125 3.457031 -2.820312 4.03125 -2.25 C 4.613281 -1.675781 5.421875 -1.390625 6.453125 -1.390625 C 7.472656 -1.390625 8.273438 -1.675781 8.859375 -2.25 C 9.441406 -2.820312 9.734375 -3.703125 9.734375 -4.890625 L 9.734375 -13.3125 L 11.46875 -13.3125 L 11.46875 -4.90625 C 11.46875 -3.800781 11.242188 -2.867188 10.796875 -2.109375 C 10.347656 -1.347656 9.742188 -0.78125 8.984375 -0.40625 C 8.234375 -0.0390625 7.382812 0.140625 6.4375 0.140625 C 5.5 0.140625 4.648438 -0.0390625 3.890625 -0.40625 C 3.128906 -0.78125 2.53125 -1.347656 2.09375 -2.109375 C 1.65625 -2.867188 1.4375 -3.800781 1.4375 -4.90625 L 1.4375 -13.3125 Z M 3.171875 -13.3125 "/></g></g></g><g fill="#fffef4" fill-opacity="1"><g transform="translate(66.13949, 28.170304)"><g><path d="M 3.171875 -13.3125 L 3.171875 -4.890625 C 3.171875 -3.703125 3.457031 -2.820312 4.03125 -2.25 C 4.613281 -1.675781 5.421875 -1.390625 6.453125 -1.390625 C 7.472656 -1.390625 8.273438 -1.675781 8.859375 -2.25 C 9.441406 -2.820312 9.734375 -3.703125 9.734375 -4.890625 L 9.734375 -13.3125 L 11.46875 -13.3125 L 11.46875 -4.90625 C 11.46875 -3.800781 11.242188 -2.867188 10.796875 -2.109375 C 10.347656 -1.347656 9.742188 -0.78125 8.984375 -0.40625 C 8.234375 -0.0390625 7.382812 0.140625 6.4375 0.140625 C 5.5 0.140625 4.648438 -0.0390625 3.890625 -0.40625 C 3.128906 -0.78125 2.53125 -1.347656 2.09375 -2.109375 C 1.65625 -2.867188 1.4375 -3.800781 1.4375 -4.90625 L 1.4375 -13.3125 Z M 3.171875 -13.3125 "/></g></g></g><g fill="#fffef4" fill-opacity="1"><g transform="translate(79.03371, 28.170304)"><g><path d="M 9.671875 -13.3125 L 9.671875 -11.90625 L 6.03125 -11.90625 L 6.03125 0 L 4.296875 0 L 4.296875 -11.90625 L 0.65625 -11.90625 L 0.65625 -13.3125 Z M 9.671875 -13.3125 "/></g></g></g><g fill="#fffef4" fill-opacity="1"><g transform="translate(89.368189, 28.170304)"><g><path d="M 2.9375 -1.515625 L 9.4375 -1.515625 L 9.4375 0 L 0.875 0 L 0.875 -1.375 L 7.34375 -11.8125 L 0.953125 -11.8125 L 0.953125 -13.3125 L 9.40625 -13.3125 L 9.40625 -11.9375 Z M 2.9375 -1.515625 "/></g></g></g><g fill="#fffef4" fill-opacity="1"><g transform="translate(42.032074, 47.258194)"><g><path d="M 3.203125 -11.90625 L 3.203125 -7.453125 L 8.0625 -7.453125 L 8.0625 -6.015625 L 3.203125 -6.015625 L 3.203125 -1.4375 L 8.640625 -1.4375 L 8.640625 0 L 1.46875 0 L 1.46875 -13.34375 L 8.640625 -13.34375 L 8.640625 -11.90625 Z M 3.203125 -11.90625 "/></g></g></g><g fill="#fffef4" fill-opacity="1"><g transform="translate(51.831682, 47.258194)"><g><path d="M 5.625 -13.3125 C 7.070312 -13.3125 8.328125 -13.039062 9.390625 -12.5 C 10.453125 -11.957031 11.265625 -11.179688 11.828125 -10.171875 C 12.398438 -9.171875 12.6875 -7.988281 12.6875 -6.625 C 12.6875 -5.269531 12.398438 -4.09375 11.828125 -3.09375 C 11.265625 -2.09375 10.453125 -1.328125 9.390625 -0.796875 C 8.328125 -0.265625 7.070312 0 5.625 0 L 1.46875 0 L 1.46875 -13.3125 Z M 5.625 -1.4375 C 7.34375 -1.4375 8.648438 -1.890625 9.546875 -2.796875 C 10.453125 -3.710938 10.90625 -4.988281 10.90625 -6.625 C 10.90625 -8.28125 10.445312 -9.570312 9.53125 -10.5 C 8.625 -11.4375 7.320312 -11.90625 5.625 -11.90625 L 3.203125 -11.90625 L 3.203125 -1.4375 Z M 5.625 -1.4375 "/></g></g></g><g fill="#fffef4" fill-opacity="1"><g transform="translate(65.337183, 47.258194)"><g><path d="M 3.171875 -13.3125 L 3.171875 -4.890625 C 3.171875 -3.703125 3.457031 -2.820312 4.03125 -2.25 C 4.613281 -1.675781 5.421875 -1.390625 6.453125 -1.390625 C 7.472656 -1.390625 8.273438 -1.675781 8.859375 -2.25 C 9.441406 -2.820312 9.734375 -3.703125 9.734375 -4.890625 L 9.734375 -13.3125 L 11.46875 -13.3125 L 11.46875 -4.90625 C 11.46875 -3.800781 11.242188 -2.867188 10.796875 -2.109375 C 10.347656 -1.347656 9.742188 -0.78125 8.984375 -0.40625 C 8.234375 -0.0390625 7.382812 0.140625 6.4375 0.140625 C 5.5 0.140625 4.648438 -0.0390625 3.890625 -0.40625 C 3.128906 -0.78125 2.53125 -1.347656 2.09375 -2.109375 C 1.65625 -2.867188 1.4375 -3.800781 1.4375 -4.90625 L 1.4375 -13.3125 Z M 3.171875 -13.3125 "/></g></g></g><g fill="#fffef4" fill-opacity="1"><g transform="translate(78.231403, 47.258194)"><g><path d="M 0.828125 -6.671875 C 0.828125 -7.972656 1.117188 -9.140625 1.703125 -10.171875 C 2.285156 -11.210938 3.082031 -12.023438 4.09375 -12.609375 C 5.113281 -13.191406 6.238281 -13.484375 7.46875 -13.484375 C 8.925781 -13.484375 10.195312 -13.132812 11.28125 -12.4375 C 12.363281 -11.738281 13.148438 -10.742188 13.640625 -9.453125 L 11.5625 -9.453125 C 11.1875 -10.253906 10.648438 -10.875 9.953125 -11.3125 C 9.265625 -11.75 8.4375 -11.96875 7.46875 -11.96875 C 6.539062 -11.96875 5.707031 -11.75 4.96875 -11.3125 C 4.226562 -10.875 3.644531 -10.257812 3.21875 -9.46875 C 2.800781 -8.675781 2.59375 -7.742188 2.59375 -6.671875 C 2.59375 -5.609375 2.800781 -4.675781 3.21875 -3.875 C 3.644531 -3.082031 4.226562 -2.46875 4.96875 -2.03125 C 5.707031 -1.601562 6.539062 -1.390625 7.46875 -1.390625 C 8.4375 -1.390625 9.265625 -1.601562 9.953125 -2.03125 C 10.648438 -2.457031 11.1875 -3.070312 11.5625 -3.875 L 13.640625 -3.875 C 13.148438 -2.601562 12.363281 -1.617188 11.28125 -0.921875 C 10.195312 -0.234375 8.925781 0.109375 7.46875 0.109375 C 6.238281 0.109375 5.113281 -0.175781 4.09375 -0.75 C 3.082031 -1.332031 2.285156 -2.140625 1.703125 -3.171875 C 1.117188 -4.203125 0.828125 -5.367188 0.828125 -6.671875 Z M 0.828125 -6.671875 "/></g></g></g><g fill="#fffef4" fill-opacity="1"><g transform="translate(92.978567, 47.258194)"><g><path d="M 9.34375 -2.96875 L 3.53125 -2.96875 L 2.46875 0 L 0.625 0 L 5.453125 -13.25 L 7.453125 -13.25 L 12.25 0 L 10.421875 0 Z M 8.84375 -4.375 L 6.4375 -11.109375 L 4.03125 -4.375 Z M 8.84375 -4.375 "/></g></g></g><g fill="#fffef4" fill-opacity="1"><g transform="translate(105.853683, 47.258194)"><g><path d="M 9.671875 -13.3125 L 9.671875 -11.90625 L 6.03125 -11.90625 L 6.03125 0 L 4.296875 0 L 4.296875 -11.90625 L 0.65625 -11.90625 L 0.65625 -13.3125 Z M 9.671875 -13.3125 "/></g></g></g><g fill="#fffef4" fill-opacity="1"><g transform="translate(116.18816, 47.258194)"><g><path d="M 3.203125 -13.3125 L 3.203125 0 L 1.46875 0 L 1.46875 -13.3125 Z M 3.203125 -13.3125 "/></g></g></g><g fill="#fffef4" fill-opacity="1"><g transform="translate(120.887385, 47.258194)"><g><path d="M 7.515625 0.140625 C 6.273438 0.140625 5.144531 -0.148438 4.125 -0.734375 C 3.101562 -1.316406 2.296875 -2.125 1.703125 -3.15625 C 1.117188 -4.195312 0.828125 -5.367188 0.828125 -6.671875 C 0.828125 -7.972656 1.117188 -9.140625 1.703125 -10.171875 C 2.296875 -11.210938 3.101562 -12.019531 4.125 -12.59375 C 5.144531 -13.175781 6.273438 -13.46875 7.515625 -13.46875 C 8.753906 -13.46875 9.882812 -13.175781 10.90625 -12.59375 C 11.925781 -12.019531 12.726562 -11.21875 13.3125 -10.1875 C 13.90625 -9.15625 14.203125 -7.984375 14.203125 -6.671875 C 14.203125 -5.359375 13.90625 -4.1875 13.3125 -3.15625 C 12.726562 -2.125 11.925781 -1.316406 10.90625 -0.734375 C 9.882812 -0.148438 8.753906 0.140625 7.515625 0.140625 Z M 7.515625 -1.375 C 8.441406 -1.375 9.273438 -1.585938 10.015625 -2.015625 C 10.765625 -2.453125 11.351562 -3.070312 11.78125 -3.875 C 12.207031 -4.675781 12.421875 -5.609375 12.421875 -6.671875 C 12.421875 -7.742188 12.207031 -8.675781 11.78125 -9.46875 C 11.351562 -10.257812 10.769531 -10.875 10.03125 -11.3125 C 9.289062 -11.75 8.453125 -11.96875 7.515625 -11.96875 C 6.566406 -11.96875 5.722656 -11.75 4.984375 -11.3125 C 4.242188 -10.875 3.660156 -10.257812 3.234375 -9.46875 C 2.804688 -8.675781 2.59375 -7.742188 2.59375 -6.671875 C 2.59375 -5.609375 2.804688 -4.675781 3.234375 -3.875 C 3.660156 -3.070312 4.242188 -2.453125 4.984375 -2.015625 C 5.734375 -1.585938 6.578125 -1.375 7.515625 -1.375 Z M 7.515625 -1.375 "/></g></g></g><g fill="#fffef4" fill-opacity="1"><g transform="translate(135.901987, 47.258194)"><g><path d="M 11.9375 0 L 10.203125 0 L 3.203125 -10.609375 L 3.203125 0 L 1.46875 0 L 1.46875 -13.34375 L 3.203125 -13.34375 L 10.203125 -2.75 L 10.203125 -13.34375 L 11.9375 -13.34375 Z M 11.9375 0 "/></g></g></g></svg>